<mxfile host="app.diagrams.net" modified="2023-05-26T05:34:51.605Z" agent="Mozilla/5.0 (Windows NT 10.0; Win64; x64) AppleWebKit/537.36 (KHTML, like Gecko) Chrome/113.0.0.0 Safari/537.36" etag="H5IA8iDcxcu4lYlKIWcO" version="21.3.4" type="github">
  <diagram name="페이지-1" id="Txm1GUmn1d5pyy7bxbOI">
    <mxGraphModel dx="936" dy="522" grid="1" gridSize="10" guides="1" tooltips="1" connect="1" arrows="1" fold="1" page="1" pageScale="1" pageWidth="827" pageHeight="1169" math="0" shadow="0">
      <root>
        <mxCell id="0" />
        <mxCell id="1" parent="0" />
        <mxCell id="QzSHiRfjMgNU8FV60Yij-17" value="" style="edgeStyle=orthogonalEdgeStyle;rounded=0;orthogonalLoop=1;jettySize=auto;html=1;endArrow=none;endFill=0;" parent="1" source="QzSHiRfjMgNU8FV60Yij-1" target="QzSHiRfjMgNU8FV60Yij-11" edge="1">
          <mxGeometry relative="1" as="geometry" />
        </mxCell>
        <mxCell id="QzSHiRfjMgNU8FV60Yij-1" value="이용자" style="shape=umlActor;verticalLabelPosition=bottom;verticalAlign=top;html=1;outlineConnect=0;" parent="1" vertex="1">
          <mxGeometry x="60" y="130" width="30" height="60" as="geometry" />
        </mxCell>
        <mxCell id="QzSHiRfjMgNU8FV60Yij-4" value="회원관리(회원서비스)" style="shape=umlFrame;whiteSpace=wrap;html=1;pointerEvents=0;width=260;height=30;" parent="1" vertex="1">
          <mxGeometry x="140" y="40" width="530" height="430" as="geometry" />
        </mxCell>
        <mxCell id="QzSHiRfjMgNU8FV60Yij-8" value="관리자" style="shape=umlActor;verticalLabelPosition=bottom;verticalAlign=top;html=1;outlineConnect=0;" parent="1" vertex="1">
          <mxGeometry x="70" y="290" width="30" height="60" as="geometry" />
        </mxCell>
        <mxCell id="QzSHiRfjMgNU8FV60Yij-30" value="" style="edgeStyle=orthogonalEdgeStyle;rounded=0;orthogonalLoop=1;jettySize=auto;html=1;endArrow=none;endFill=0;" parent="1" source="QzSHiRfjMgNU8FV60Yij-9" target="QzSHiRfjMgNU8FV60Yij-1" edge="1">
          <mxGeometry relative="1" as="geometry" />
        </mxCell>
        <mxCell id="QzSHiRfjMgNU8FV60Yij-9" value="회원정보보기" style="ellipse;whiteSpace=wrap;html=1;fillColor=#ffe6cc;strokeColor=#d79b00;" parent="1" vertex="1">
          <mxGeometry x="190" y="200" width="110" height="40" as="geometry" />
        </mxCell>
        <mxCell id="QzSHiRfjMgNU8FV60Yij-27" value="" style="edgeStyle=orthogonalEdgeStyle;rounded=0;orthogonalLoop=1;jettySize=auto;html=1;endArrow=none;endFill=0;" parent="1" source="QzSHiRfjMgNU8FV60Yij-10" target="QzSHiRfjMgNU8FV60Yij-1" edge="1">
          <mxGeometry relative="1" as="geometry" />
        </mxCell>
        <mxCell id="QzSHiRfjMgNU8FV60Yij-44" style="edgeStyle=orthogonalEdgeStyle;rounded=0;orthogonalLoop=1;jettySize=auto;html=1;endArrow=none;endFill=0;" parent="1" source="QzSHiRfjMgNU8FV60Yij-10" target="QzSHiRfjMgNU8FV60Yij-42" edge="1">
          <mxGeometry relative="1" as="geometry" />
        </mxCell>
        <mxCell id="QzSHiRfjMgNU8FV60Yij-10" value="회원탈퇴" style="ellipse;whiteSpace=wrap;html=1;fillColor=#ffe6cc;strokeColor=#d79b00;" parent="1" vertex="1">
          <mxGeometry x="190" y="160" width="110" height="40" as="geometry" />
        </mxCell>
        <mxCell id="QzSHiRfjMgNU8FV60Yij-19" value="" style="edgeStyle=orthogonalEdgeStyle;rounded=0;orthogonalLoop=1;jettySize=auto;html=1;endArrow=none;endFill=0;" parent="1" source="QzSHiRfjMgNU8FV60Yij-11" target="QzSHiRfjMgNU8FV60Yij-1" edge="1">
          <mxGeometry relative="1" as="geometry" />
        </mxCell>
        <mxCell id="QzSHiRfjMgNU8FV60Yij-11" value="회원정보수정" style="ellipse;whiteSpace=wrap;html=1;fillColor=#ffe6cc;strokeColor=#d79b00;" parent="1" vertex="1">
          <mxGeometry x="190" y="80" width="110" height="40" as="geometry" />
        </mxCell>
        <mxCell id="QzSHiRfjMgNU8FV60Yij-18" value="" style="edgeStyle=orthogonalEdgeStyle;rounded=0;orthogonalLoop=1;jettySize=auto;html=1;endArrow=none;endFill=0;" parent="1" source="QzSHiRfjMgNU8FV60Yij-12" target="QzSHiRfjMgNU8FV60Yij-1" edge="1">
          <mxGeometry relative="1" as="geometry" />
        </mxCell>
        <mxCell id="QzSHiRfjMgNU8FV60Yij-25" value="" style="edgeStyle=orthogonalEdgeStyle;rounded=0;orthogonalLoop=1;jettySize=auto;html=1;dashed=1;" parent="1" source="QzSHiRfjMgNU8FV60Yij-12" target="QzSHiRfjMgNU8FV60Yij-23" edge="1">
          <mxGeometry relative="1" as="geometry">
            <mxPoint x="435" y="140" as="targetPoint" />
          </mxGeometry>
        </mxCell>
        <mxCell id="QzSHiRfjMgNU8FV60Yij-26" value="&amp;lt;&amp;lt;include&amp;gt;&amp;gt;" style="edgeLabel;html=1;align=center;verticalAlign=middle;resizable=0;points=[];" parent="QzSHiRfjMgNU8FV60Yij-25" vertex="1" connectable="0">
          <mxGeometry x="-0.2559" y="2" relative="1" as="geometry">
            <mxPoint as="offset" />
          </mxGeometry>
        </mxCell>
        <mxCell id="QzSHiRfjMgNU8FV60Yij-12" value="회원등록" style="ellipse;whiteSpace=wrap;html=1;fillColor=#ffe6cc;strokeColor=#d79b00;" parent="1" vertex="1">
          <mxGeometry x="190" y="120" width="110" height="40" as="geometry" />
        </mxCell>
        <mxCell id="QzSHiRfjMgNU8FV60Yij-20" value="" style="edgeStyle=orthogonalEdgeStyle;rounded=0;orthogonalLoop=1;jettySize=auto;html=1;endArrow=none;endFill=0;" parent="1" source="QzSHiRfjMgNU8FV60Yij-13" target="QzSHiRfjMgNU8FV60Yij-8" edge="1">
          <mxGeometry relative="1" as="geometry" />
        </mxCell>
        <mxCell id="QzSHiRfjMgNU8FV60Yij-13" value="회원전체 조회" style="ellipse;whiteSpace=wrap;html=1;fillColor=#ffe6cc;strokeColor=#d79b00;" parent="1" vertex="1">
          <mxGeometry x="180" y="300" width="110" height="40" as="geometry" />
        </mxCell>
        <mxCell id="QzSHiRfjMgNU8FV60Yij-23" value="로그인" style="ellipse;whiteSpace=wrap;html=1;fillColor=#ffe6cc;strokeColor=#d79b00;" parent="1" vertex="1">
          <mxGeometry x="430" y="80" width="110" height="40" as="geometry" />
        </mxCell>
        <mxCell id="QzSHiRfjMgNU8FV60Yij-39" value="" style="edgeStyle=orthogonalEdgeStyle;rounded=0;orthogonalLoop=1;jettySize=auto;html=1;dashed=1;" parent="1" source="QzSHiRfjMgNU8FV60Yij-31" target="QzSHiRfjMgNU8FV60Yij-9" edge="1">
          <mxGeometry relative="1" as="geometry">
            <mxPoint x="325" y="220" as="targetPoint" />
          </mxGeometry>
        </mxCell>
        <mxCell id="QzSHiRfjMgNU8FV60Yij-40" value="&amp;lt;&amp;lt;extends&amp;gt;&amp;gt;" style="edgeLabel;html=1;align=center;verticalAlign=middle;resizable=0;points=[];" parent="QzSHiRfjMgNU8FV60Yij-39" vertex="1" connectable="0">
          <mxGeometry x="-0.2677" y="4" relative="1" as="geometry">
            <mxPoint as="offset" />
          </mxGeometry>
        </mxCell>
        <mxCell id="QzSHiRfjMgNU8FV60Yij-31" value="나의 등급보기" style="ellipse;whiteSpace=wrap;html=1;fillColor=#ffe6cc;strokeColor=#d79b00;" parent="1" vertex="1">
          <mxGeometry x="460" y="200" width="110" height="40" as="geometry" />
        </mxCell>
        <mxCell id="QzSHiRfjMgNU8FV60Yij-32" value="포인트 점수확인" style="ellipse;whiteSpace=wrap;html=1;fillColor=#ffe6cc;strokeColor=#d79b00;" parent="1" vertex="1">
          <mxGeometry x="460" y="280" width="110" height="40" as="geometry" />
        </mxCell>
        <mxCell id="QzSHiRfjMgNU8FV60Yij-33" value="선행되어야하는가?" style="text;html=1;align=center;verticalAlign=middle;resizable=0;points=[];autosize=1;strokeColor=none;fillColor=none;" parent="1" vertex="1">
          <mxGeometry x="285" y="145" width="130" height="30" as="geometry" />
        </mxCell>
        <mxCell id="QzSHiRfjMgNU8FV60Yij-41" value="회원 정보로 부터 파생되는가?" style="text;html=1;align=center;verticalAlign=middle;resizable=0;points=[];autosize=1;strokeColor=none;fillColor=none;" parent="1" vertex="1">
          <mxGeometry x="290" y="228" width="180" height="30" as="geometry" />
        </mxCell>
        <mxCell id="QzSHiRfjMgNU8FV60Yij-42" value="외부시스템&lt;br&gt;DBMS" style="html=1;dropTarget=0;whiteSpace=wrap;" parent="1" vertex="1">
          <mxGeometry x="690" y="100" width="180" height="90" as="geometry" />
        </mxCell>
        <mxCell id="QzSHiRfjMgNU8FV60Yij-43" value="" style="shape=module;jettyWidth=8;jettyHeight=4;" parent="QzSHiRfjMgNU8FV60Yij-42" vertex="1">
          <mxGeometry x="1" width="20" height="20" relative="1" as="geometry">
            <mxPoint x="-27" y="7" as="offset" />
          </mxGeometry>
        </mxCell>
      </root>
    </mxGraphModel>
  </diagram>
</mxfile>
